<svg version="1.2" xmlns="http://www.w3.org/2000/svg" viewBox="0 0 300 300" width="400" height="400">
	<title>css-svg</title>
	<style>
		.s0 { fill: #1572b6 } 
		.s1 { fill: #33a9dc } 
		.s2 { fill: #ffffff } 
		.s3 { fill: #ebebeb } 
	</style>
	<g id="Layer">
		<path id="Layer" class="s0" d="m50 263.4l-22.3-250.7h245.6l-22.4 250.7-100.6 27.9z"/>
		<path id="Layer" class="s1" d="m150.5 270l81.2-22.6 19.3-214.2h-100.5z"/>
		<path id="Layer" class="s2" d="m150.5 124h40.7l2.8-31.5h-43.5v-30.7h77l-0.7 8.2-7.5 84.8h-68.8z"/>
		<path id="Layer" class="s3" d="m150.7 203.9h-0.2l-34.2-9.2-2.2-24.5h-30.9l4.3 48.2 63 17.5h0.2z"/>
		<path id="Layer" class="s2" d="m188.5 153.5l-3.7 41.2-34.3 9.2v32l63-17.5 0.5-5.2 5.4-59.7z"/>
		<path id="Layer" class="s3" d="m150.6 61.8v30.7h-74.3l-0.6-6.9-1.4-15.6-0.8-8.2zm-0.1 62.2v30.8h-33.8l-0.7-7-1.4-15.5-0.7-8.3z"/>
	</g>
</svg>