<svg version="1.2" xmlns="http://www.w3.org/2000/svg" viewBox="0 0 258 228" width="400" height="353">
	<title>react-svg</title>
	<style>
		.s0 { fill: #00d8ff } 
	</style>
	<path id="Layer" fill-rule="evenodd" class="s0" d="m257 113.7c0 16-19.1 31.8-48.4 41.5q-2.4 0.8-4.8 1.5 0.2 0.8 0.4 1.7 0.2 0.8 0.4 1.7 0.2 0.8 0.4 1.7 0.2 0.9 0.3 1.7c5.8 29.3 1.4 53.3-12.4 61.3-13.3 7.7-34.7 0.1-56.5-18.6q-0.9-0.8-1.8-1.5-0.8-0.8-1.7-1.6-0.9-0.8-1.7-1.6-0.9-0.8-1.7-1.6-0.7 0.6-1.3 1.2-0.7 0.7-1.4 1.3-0.6 0.6-1.3 1.2-0.7 0.6-1.4 1.2c-22.4 19.6-45.5 27.8-59.2 19.9-13.4-7.7-17.5-30.1-12.2-58.3q0.2-1.2 0.5-2.3 0.2-1.1 0.5-2.3 0.2-1.1 0.5-2.3 0.2-1.1 0.5-2.2-0.8-0.3-1.7-0.5-0.9-0.3-1.7-0.6-0.9-0.3-1.8-0.5-0.8-0.3-1.7-0.6c-28.2-9.7-46.8-25.6-46.8-41.4 0-15.4 17.3-30.2 44.4-39.7q4.6-1.5 9.5-2.9-0.3-1.1-0.5-2.1-0.3-1.1-0.5-2.2-0.2-1-0.5-2.1-0.2-1-0.4-2.1c-5.6-28.7-1.7-51.6 11.7-59.4 13.9-8 37.1 0.6 60.2 21.2q0.5 0.4 1.1 0.9 0.5 0.5 1 1 0.5 0.5 1.1 1 0.5 0.5 1 1 0.8-0.8 1.6-1.5 0.8-0.8 1.6-1.5 0.8-0.7 1.6-1.4 0.8-0.8 1.6-1.5c22.1-19.2 43.9-27.2 57.2-19.5 14 8 18.1 32.4 11.8 62.7q-0.6 2.8-1.3 5.6 1.1 0.3 2.1 0.6 1 0.3 2.1 0.7 1 0.3 2 0.6 1.1 0.4 2.1 0.7c27.6 9.5 45.5 24.5 45.5 39.9zm-10.9 0c0-9.3-14.5-21.4-38.2-29.5q-3.7-1.3-7.6-2.4c-3.1 10.2-7.3 20.9-12.4 31.9 5.3 11.3 9.7 22.2 12.9 32.5q2.2-0.7 4.3-1.4c25.4-8.4 41-21.2 41-31.1zm-51.8 50.4q-0.2-0.8-0.4-1.6-0.1-0.7-0.3-1.5-0.2-0.8-0.4-1.6c-10.6 2.5-22.3 4.3-34.7 5.4-7 10.2-14.2 19.4-21.4 27.2q0.8 0.8 1.6 1.5 0.8 0.8 1.6 1.5 0.8 0.8 1.6 1.5 0.8 0.7 1.6 1.4c18.6 16 35.9 22.1 44 17.4 3.7-2.2 6.8-7.7 8.3-15.9 1.7-9.1 1.4-20.8-1.2-33.8q-0.2-0.7-0.3-1.5zm-77.4 32.5q0.7-0.6 1.3-1.1 0.6-0.6 1.2-1.1 0.6-0.6 1.2-1.2 0.6-0.5 1.2-1.1c-7.5-8-14.9-17.2-22-27.2-12.4-1-24-2.6-34.5-5q-0.2 1.1-0.5 2.2-0.2 1-0.5 2.1-0.2 1-0.4 2.1-0.2 1.1-0.4 2.1c-4.6 24.2-1.3 42.1 6.8 46.8 3.8 2.2 10.1 2.1 18-0.7 8.7-3.1 18.7-9.2 28.6-17.9zm-64-51.3q0.8 0.2 1.6 0.5 0.8 0.2 1.6 0.5 0.8 0.2 1.6 0.4c3.2-10.5 7.5-21.6 12.6-32.8-5.1-11-9.3-21.9-12.5-32.3q-4.6 1.3-8.8 2.8c-23.2 8.1-37.1 19.9-37.1 29.3 0 4.3 3.2 9.7 9.6 15.2 7.1 6 17.4 11.6 29.8 15.8q0.8 0.3 1.6 0.6zm11.2-82.8q0.2 1 0.5 1.9 0.2 1 0.4 2 0.2 1 0.5 2c10.6-2.4 22.1-4.2 34.1-5.3 7.1-9.9 14.4-19 21.9-27q-0.5-0.5-1-0.9-0.5-0.5-0.9-0.9-0.5-0.5-1-0.9-0.5-0.4-1-0.9c-19.9-17.7-38.9-24.8-47.4-19.8-8.1 4.7-11.3 23.2-6.5 47.8q0.2 1 0.4 2zm111.9 28.6q1 1.6 1.9 3.3 0.9 1.6 1.8 3.3 0.9 1.7 1.8 3.4c3.3-7.6 6-15 8.2-22.1-7.3-1.6-15.2-3-23.3-4q1 1.5 2 3.1 1 1.6 1.9 3.2 1 1.6 2 3.2 0.9 1.6 1.9 3.3 0.9 1.6 1.8 3.3zm-62.1-29q3.8-0.2 7.6-0.3 3.8-0.1 7.6-0.1 3.7 0 7.5 0.1 3.8 0.1 7.6 0.3c-5-6.6-10-12.7-15.1-18.2-5.1 5.5-10.2 11.6-15.2 18.2zm-28.2 22.5q1-1.7 2-3.3 0.9-1.6 1.9-3.2 1-1.6 2-3.2c-8.1 1-15.9 2.4-23.2 4 2.3 7.2 5 14.6 8.2 22.2q0.8-1.7 1.7-3.4 0.9-1.6 1.8-3.3 0.9-1.6 1.8-3.3 1-1.6 1.9-3.3 0.9-1.6 1.9-3.2zm-1.9 55.4q-0.9-1.6-1.8-3.2-1-1.7-1.9-3.3-0.9-1.7-1.8-3.4-0.8-1.6-1.7-3.3c-3.3 7.7-6 15.3-8.3 22.6 7.3 1.6 15.2 2.8 23.6 3.8q-4.2-6.4-8.1-13.2zm60.7 25.7q-7.7 0.4-15.5 0.4-7.6 0-15-0.3c5.1 6.6 10.2 12.8 15.4 18.4 5-5.5 10.1-11.7 15.1-18.5zm35.3-35.9q-0.9 1.7-1.8 3.4-0.9 1.7-1.9 3.4-0.9 1.7-1.9 3.4-1 1.6-1.9 3.2-1 1.7-2 3.3-0.9 1.6-1.9 3.3-1 1.6-2.1 3.2c8.5-1 16.5-2.4 23.9-4.1-2.3-7.2-5.2-14.7-8.6-22.5q-0.9 1.7-1.8 3.4zm-12.2-0.4q1.4-2.6 2.8-5.2 1.4-2.6 2.7-5.2 1.3-2.6 2.6-5.2-1.3-2.6-2.6-5.2-1.3-2.6-2.7-5.2-1.4-2.6-2.8-5.1-1.4-2.5-2.9-5.1-1.5-2.5-3-5-1.5-2.5-3-4.9-1.5-2.5-3.1-4.9-1.6-2.5-3.2-4.9c-7.7-0.5-15.5-0.8-23.4-0.8-7.9 0-15.7 0.3-23.3 0.8q-1.7 2.4-3.3 4.9-1.6 2.4-3.1 4.9-1.6 2.5-3.1 5-1.5 2.5-2.9 5-1.5 2.5-2.9 5.1-1.4 2.5-2.8 5.1-1.3 2.6-2.6 5.2-1.3 2.6-2.6 5.2 1.3 2.7 2.6 5.3 1.3 2.6 2.7 5.1 1.3 2.6 2.7 5.2 1.4 2.5 2.9 5.1 1.5 2.5 3 5 1.5 2.5 3.1 5 1.5 2.5 3.2 4.9 1.6 2.5 3.2 4.9c7.5 0.5 15.2 0.7 23.2 0.7q2.9 0 5.9 0 2.9-0.1 5.8-0.2 3-0.1 5.9-0.2 2.9-0.2 5.8-0.4 1.7-2.4 3.2-4.9 1.6-2.4 3.1-4.9 1.6-2.5 3.1-5 1.5-2.5 2.9-5 1.5-2.5 2.9-5.1zm-24.9-98.7q-0.8 0.6-1.5 1.3-0.8 0.7-1.5 1.3-0.7 0.7-1.5 1.4-0.7 0.7-1.4 1.4c7.3 7.9 14.6 17 21.6 27 12.1 1.1 23.6 2.9 34.3 5.4q0.6-2.6 1.1-5.1c5.4-26.1 2.1-46.1-6.5-51-8.1-4.7-25.7 1.8-44.6 18.3zm-13.7 60.1c12.6 0 22.9 10.2 22.9 22.9 0 12.6-10.3 22.8-22.9 22.8-12.6 0-22.9-10.2-22.9-22.8 0-12.7 10.3-22.9 22.9-22.9z"/>
</svg>