<svg version="1.2" xmlns="http://www.w3.org/2000/svg" viewBox="0 0 512 384" width="400" height="300">
	<title>sass-svg</title>
	<style>
		.s0 { fill: #cf649a } 
	</style>
	<path id="Layer" fill-rule="evenodd" class="s0" d="m511.8 277.8c-0.8 21.4-20.5 30.3-24.2 30.9-2.7 0.4-4.1 0.5-4.5-1.6-0.3-1.4 0.7-2.1 3.8-4 3.1-2 12.4-8.4 14.1-20 1.7-11.6-7.1-39.4-51.6-44.6-20.7-2.5-37 0.5-49.6 5.7 2.3 6 4 12.3 4.3 18.7 0.5 13.9-9.1 24.2-19.1 31.6-5.8 4.3-12.1 7.2-17.3 8.9-4.2 1.8-9.8 3.6-13.7 2.8-8.7-1.8-13.3-9.5-7.4-26.5 3.2-9.2 12.5-23.2 27.3-35.3-3.4-7-7.2-14.1-9.1-20.6-3.7-12.8-4.9-20.6-4.9-20.6 0 0-12.2 25.4-28 48.5-0.9 1.4-1.8 2.7-2.7 4 3.1 7.2 5.6 14.8 5.9 22.5 0.6 14-5.5 24.5-15.5 31.9-5.5 4-11.2 6.7-16.2 8.5-3.2 1.4-9.6 3.7-18.8 4.3-5.1 0.4-9.9 0-12.6-2-3.7-2.8-4.1-6.3-2.2-11 1.6-4 13.8-17.9 24-30.1 2.8-3.4 5.5-6.8 7.9-10l-0.1-0.1c0 0 1.8-2.4 4.8-6.6-3.7-8.1-8.5-16.4-10.7-24-3.7-12.8-4.9-20.6-4.9-20.6 0 0-12.4 31.8-25.3 57.2-10 19.7-16.7 31.6-19.7 36.8v0.2c0 0-0.4 0.7-1.2 1.9-0.4 0.7-0.6 1-0.6 1v-0.1c-3.4 5-10.9 14.7-18.4 14.7-20.5 0-13-41.7-13-41.7 0 0-6 15.4-12.8 28.7-5.5 10.9-10.5 20-21.5 20-3.1 0-8.1-0.1-12.3-4-9.5-9-16.7-31.8-15.3-49.4 1.2-15 3.5-25.3 6.7-34-5.7 3.1-12.2 6.7-18.8 10.6l-10.2 6 0.3 0.6c8.5 16.3 10.7 52-7.7 79.5-18.5 27.5-52.7 44.2-86.1 34.9-10.8-3-27-25.3-13-56.3 12.4-27.4 61.9-53.3 74.9-59.7 1.1-0.6 2.3-1.3 3.6-2-26-22.7-90.9-53.4-100-100.5-2.6-13.2 3.6-45 42.6-81.4 32.8-30.7 78.4-54.1 120.5-69.1 70.7-25.1 145.5-10.3 157 34.8 11.3 44.3-27.2 97.3-76.5 116.4-44 17-80.4 14.3-95.3 9.4-17-5.6-27-16.8-29.4-23.1-1-2.5-2.6-6.7 0-8.1 1.6-0.9 2.2-0.7 6.5 4 4.1 4.5 20.4 16.5 51.4 13 81.4-9.1 130.4-72.3 114.9-106.3-10.9-23.8-73.6-34.5-151.9 4.5-95.6 47.6-100.8 86.9-101.6 101.8-2.2 41 50.7 62.6 79.3 93.1l1.1 1.2c5.4-2.9 11.1-6.1 16.6-9.1 14.4-7.9 28-15.3 34.4-18.8 10.1-14.7 30.5-30.8 45.3-30.8 23.6 0 15.5 33.9 15.5 33.9 0 0 0.5-1.6 1.1-1.6 0.6 0 3.2-4.5 10.5-1.8 7.5 2.7 5.8 8 5.8 8.5 0.1 1.1-8.9 31.2-12.6 50.5-1.7 9.2-0.7 15.9-0.2 15.9 0.7 0 2.2-2.4 3.6-4.9v-0.1c0 0 1-1.9 2.8-5.3 0.2-0.4-1.8 3.3 0.3-0.7 2.1-4 5-9.9 8.3-17.3 6.5-14.5 31.5-70.1 33.6-76.3 2.2-6.2 3.3-12.6 4.3-15.3 1-2.7 9.9-4.8 20.2-4.7 10.3 0.1 11.3 4.5 11.4 5.4 0 1-5 13.2-6.1 21.8-1.1 8.6 0 13 0.9 20.2 0.6 4.8 3.6 10.8 7.1 17.6 10.7-17.5 29.5-50.8 31.3-60.2 1.3-6.4 3.3-12.6 4.3-15.3 1-2.7 9.9-4.8 20.2-4.7 10.3 0.1 11.3 4.5 11.4 5.4 0 1-5 13.2-6.1 21.8-1.1 8.6 0 13 0.9 20.2 0.8 6.2 5.6 14.5 10.4 24 13-6.4 28.5-10.7 46.4-10.8 46.3-0.3 72.4 29.7 71.2 57.2zm-399.2-4.2c-0.8 0.5-1.6 1-2.3 1.4 0 0-0.4 0.2-1 0.6-3.8 2.3-7 4.2-9.1 5.5-9.4 5.9-23.7 15.5-34.7 25.9-18.1 17.1-21.8 40.8-12.3 46.3 8.8 5.2 29.5-0.9 44.2-17 15.5-16.9 21.9-38.3 15.2-62.7zm105.4-57.8c-2.2-3.7-11-0.7-19.1 8.3-5 5.6-13.5 20-17.5 32.1-7.9 24-4.5 48.3 1.1 49.8 6.5 1.8 17.3-30.3 22.4-42.8 3.2-7.8 15.7-42.6 13.1-47.4zm95.6 61.9v-1.2c-3.2 4.2-6.2 7.9-8.7 11.1-4.4 5.5-15.5 17.4-15.5 17.4 0 0-1.6 1.5-0.9 1.9 0.9 0.6 2.9-0.2 5.1-1.3 6.2-3.9 20-13.5 20-27.9zm69.1-15.2c0.1-2.7-0.5-5.6-1.5-8.6-8.3 7.3-13.1 15-15.2 19.6-5.4 11.6-5.6 15.3-4 16.5 7.8-2.8 20.6-9.5 20.7-27.5z"/>
</svg>